<svg xmlns="http://www.w3.org/2000/svg" width="666" height="608" viewBox="0 0 666 608">
<g>
<path d="M 138.01,510.51 L 121.53,494.01 L 176.00,439.51 C205.96,409.53 230.94,385.00 231.50,385.00 C232.06,385.00 239.72,392.20 248.51,401.01 L 264.49,417.01 L 209.49,472.01 L 154.49,527.01 L 138.01,510.51 M 342.28,431.44 C321.31,428.45 298.97,419.87 280.84,407.83 C268.32,399.52 249.48,380.62 241.13,368.00 C223.13,340.81 214.95,311.73 216.26,279.64 C220.03,187.32 305.49,122.12 396.10,142.44 C444.67,153.34 485.61,190.12 502.12,237.71 C519.71,288.38 507.45,346.29 470.86,385.40 C448.26,409.56 420.50,424.71 388.01,430.62 C375.91,432.82 354.65,433.20 342.28,431.44 M 374.36,408.99 C389.07,407.56 402.79,403.66 416.53,397.02 C485.35,363.71 507.94,278.76 464.86,215.24 C458.32,205.61 442.71,190.00 433.47,183.87 C420.33,175.15 404.08,168.07 389.00,164.50 C379.78,162.32 357.40,161.47 346.72,162.91 C295.46,169.77 254.07,207.55 242.28,258.22 C238.60,274.02 238.42,295.62 241.83,311.00 C248.61,341.62 265.66,367.86 290.70,386.22 C307.08,398.22 330.15,406.90 351.04,408.91 C362.93,410.06 363.37,410.06 374.36,408.99 M 166.25,0.25 C257.96,0.11 408.04,0.11 499.75,0.25 C591.46,0.39 516.43,0.51 333.00,0.51 C149.57,0.51 74.54,0.39 166.25,0.25 Z" fill="white"/>
</g>
</svg>